<?xml version="1.0" encoding="utf-8"?>
<!-- Generator: Adobe Illustrator 28.0.0, SVG Export Plug-In . SVG Version: 6.00 Build 0)  -->
<svg version="1.1"
	 id="svg45" xmlns:inkscape="http://www.inkscape.org/namespaces/inkscape" xmlns:sodipodi="http://sodipodi.sourceforge.net/DTD/sodipodi-0.dtd" xmlns:svg="http://www.w3.org/2000/svg" sodipodi:docname="Kvantorium_logo_1.cdr"
	 xmlns="http://www.w3.org/2000/svg" xmlns:xlink="http://www.w3.org/1999/xlink" x="0px" y="0px" viewBox="0 0 841.9 595.3"
	 style="enable-background:new 0 0 841.9 595.3;" xml:space="preserve">
<style type="text/css">
	.st0{fill-rule:evenodd;clip-rule:evenodd;fill:#190A0B;}
</style>
<path id="path6" class="st0" d="M303.9,222.5c-21.5-37-15.6-82.9,14.6-113.3c18.8-18.9,44.2-28.2,70.7-25.8
	c34.2,3.2,64.8,32.5,87.8,55.7c0.6,0.6,0.6,1.7,0,2.3c-0.6,0.6-1.7,0.6-2.3,0c-22.4-22.5-52.6-51.6-85.8-54.7
	c-25.6-2.4-50,6.6-68.1,24.8c-29.2,29.3-34.9,73.6-14.1,109.3c0.5,0.8,0.2,1.8-0.6,2.2C305.4,223.5,304.4,223.3,303.9,222.5
	L303.9,222.5z"/>
<path id="path8" class="st0" d="M575.1,240.2c21.5,37,15.6,82.9-14.6,113.3c-18.8,18.9-44.2,28.2-70.7,25.8
	c-34.2-3.2-64.8-32.5-87.8-55.7c-0.6-0.6-0.6-1.7,0-2.3c0.6-0.6,1.7-0.6,2.3,0c22.4,22.5,52.6,51.6,85.8,54.7
	c25.6,2.4,50-6.6,68.1-24.8c29.2-29.3,34.9-73.6,14.1-109.3c-0.5-0.8-0.2-1.8,0.6-2.2C573.7,239.1,574.7,239.4,575.1,240.2
	L575.1,240.2z"/>
<path id="path10" class="st0" d="M451.4,93.3c38-19.8,83.6-11.7,112.5,19.9c18,19.7,26.2,45.4,22.5,71.9
	c-4.7,34-35.5,63.2-59.7,85.1c-0.7,0.6-1.7,0.6-2.3-0.1c-0.6-0.7-0.6-1.7,0.1-2.3c23.5-21.3,54-50.2,58.6-83.1
	c3.5-25.5-4.3-50.2-21.7-69.2c-27.9-30.5-71.9-38.3-108.6-19.2c-0.8,0.4-1.8,0.1-2.2-0.7C450.3,94.7,450.6,93.7,451.4,93.3
	L451.4,93.3z"/>
<path id="path12" class="st0" d="M426.5,369.3c-38,19.8-83.6,11.7-112.5-19.9c-18-19.7-26.2-45.4-22.5-71.9
	c4.7-34,35.5-63.2,59.7-85.1c0.7-0.6,1.7-0.6,2.3,0.1c0.6,0.7,0.6,1.7-0.1,2.3c-23.5,21.3-54,50.2-58.6,83.1
	c-3.5,25.5,4.3,50.2,21.7,69.2c27.9,30.5,71.9,38.3,108.6,19.2c0.8-0.4,1.8-0.1,2.2,0.7C427.6,367.9,427.3,368.9,426.5,369.3
	L426.5,369.3z"/>
<path id="path14" class="st0" d="M453.4,137.3c-18.5-19-42.1-35.5-68.9-38c-21.2-2-41.3,5.5-56.3,20.5c-24.8,24.9-29,61.9-11.8,91.5
	c4.9-4.8,9.7-9.6,14.6-14.4c-10.1-21-7-45.8,9.7-63.1c22.7-23.4,55.2-19.2,79.3-0.4C431.5,142.6,442.3,143.2,453.4,137.3
	L453.4,137.3z"/>
<path id="path16" class="st0" d="M425.1,325.8c18.5,19,42.1,35.5,68.9,38c21.2,2,41.3-5.5,56.3-20.5c24.8-24.9,29-61.9,11.8-91.5
	c-4.9,4.8-9.7,9.6-14.6,14.4c10.1,21,7,45.8-9.7,63.1c-22.7,23.4-55.2,19.2-79.3,0.4C447,320.5,436.2,319.9,425.1,325.8L425.1,325.8
	z"/>
<path id="path18" class="st0" d="M534.3,245.6c19-18.5,35.5-42.1,38-68.9c2-21.2-5.5-41.3-20.5-56.3c-24.9-24.8-61.9-29-91.5-11.8
	c4.8,4.9,9.6,9.7,14.4,14.6c21-10.1,45.8-7,63.1,9.7c23.4,22.7,19.2,55.2,0.4,79.3C529,223.8,528.4,234.5,534.3,245.6L534.3,245.6z"
	/>
<path id="path20" class="st0" d="M344.2,217.5c-19,18.5-35.5,42.1-38,68.9c-2,21.2,5.5,41.3,20.5,56.3c24.9,24.8,61.9,29,91.5,11.8
	c-4.8-4.9-9.6-9.7-14.4-14.6c-21,10.1-45.8,7-63.1-9.7c-23.4-22.7-19.2-55.2-0.4-79.3C349.5,239.3,350.1,228.6,344.2,217.5
	L344.2,217.5z"/>
<path id="path22" class="st0" d="M371.1,155.1l35.4,34.8l-5.8,5.9L365.3,161L371.1,155.1z"/>
<path id="path24" class="st0" d="M518,159.5l-33.1,32.5l-3.5-3.5l33.1-32.5L518,159.5z"/>
<path id="path26" class="st0" d="M513,307.6l-35.4-34.8l5.8-5.9l35.4,34.8L513,307.6z"/>
<path id="path28" class="st0" d="M362.9,307.1l33.1-32.5l3.5,3.5l-33.1,32.5L362.9,307.1z"/>
<path id="path30" class="st0" d="M409.6,231.6c0-17.1,14.5-31.1,31.8-30.8c17.2,0.3,30.9,14.5,30.7,32c-0.1,7.9-4,16.7-9.6,21.8
	C441.8,273.7,409.6,259.5,409.6,231.6z M426.5,214.7c-0.2,0.2-2.7,2.8-2.9,2.9c-0.8-0.2-3.4-1.5-3.8-1.4c-0.4,0.1-2.9,4.8-3.2,5.2
	l3.1,2.7c-0.1,0.6-0.8,2.3-1,4l-4.1,0.6l0,6.3c0.7,0.1,1.6,0.3,2.2,0.4l1.6,0.3c0.4,0.2,0.4,1.2,0.7,2.2c0.2,0.7,0.4,1.3,0.6,1.9
	c-0.7,0.7-2.7,2-3.1,2.6l3,5.3c1-0.1,2.6-1,3.8-1.3l0.4,0.4c0.6,0.7,1.9,2.1,2.6,2.5l-1.4,3.8c0.5,0.4,4.8,2.9,5.3,3.1l2.6-2.9
	c0.5,0.1,1.4,0.4,1.9,0.6c0.7,0.2,1.3,0.3,2.1,0.5l0.7,3.8c0.5,0.3,4.8,0,6.2,0.2c0.1-0.9,0.3-3.7,1-4l0.8-0.2
	c1.3-0.3,1.9-0.6,3.1-0.9c0.9,1,1.7,2.1,2.5,3.1l5.3-3c0-1.1-1.2-2.9-1.2-4c1.2-0.9,1.8-1.9,3-2.9l3.7,1.4c0.5-0.4,1.2-1.9,1.6-2.6
	c0.4-0.7,1.2-1.8,1.5-2.7c-0.2-0.4-2.5-2.3-3-2.5c0.1-0.3,1.1-4.1,1.1-4.1c0.6-0.3,3-0.6,4-0.7l0-6.2c-0.5-0.1-3.8-0.6-3.9-0.8
	l-1.2-4c1-0.9,2.2-1.6,3.1-2.6c-0.3-0.8-2.4-4.1-3-5.4l-3.9,1.4c-1-0.9-1.8-2-3-2.8c0.3-1.2,1.4-3,1.5-4.1c-0.6-0.1-4.2-2.5-5.3-3
	l-2.7,3.2c-0.9-0.1-1.1-0.3-1.9-0.6c-0.6-0.2-1.3-0.3-2.1-0.4l-0.6-3.5c-0.1-0.5,0-0.8-0.4-0.8h-5.6c-0.5,0-0.4,0.5-0.5,1l-0.6,3.5
	c-1-0.4-3,0.6-3.9,0.9c-0.4-0.6-0.8-1.1-1.3-1.7c-0.3-0.4-0.9-1.3-1.3-1.6c-0.4,0.1-1,0.5-1.4,0.8l-2.7,1.5
	c-0.6,0.3-0.8,0.4-1.3,0.8L426.5,214.7z"/>
<path id="path32" class="st0" d="M513,323.6c-12.3,0-22.2-9.8-22.2-21.8c0-12,10-21.8,22.2-21.8c12.3,0,22.2,9.8,22.2,21.8
	C535.2,313.8,525.2,323.6,513,323.6z"/>
<path id="path34" class="st0" d="M528,159.5c0,7.6-6,13.8-13.5,13.8c-7.5,0-13.5-6.2-13.5-13.8s6-13.8,13.5-13.8
	C521.9,145.7,528,151.9,528,159.5z"/>
<path id="path36" class="st0" d="M379.8,307.1c0,7.6-6,13.8-13.5,13.8c-7.5,0-13.5-6.2-13.5-13.8c0-7.6,6-13.8,13.5-13.8
	C373.8,293.3,379.8,299.5,379.8,307.1z"/>
<path id="path38" class="st0" d="M346.5,161.4c0-12.5,9.9-22.5,22.1-22.5c12.2,0,22.1,10.1,22.1,22.5c0,12.5-9.9,22.5-22.1,22.5
	C356.4,184,346.5,173.9,346.5,161.4z"/>
<path id="path40" class="st0" d="M404.4,231.4c0-19.9,17-36.4,37.2-36c20,0.4,36.1,16.9,35.8,37.3c-0.1,9.3-4.6,19.5-11.1,25.5
	C442,280.6,404.4,264,404.4,231.4L404.4,231.4z M412.6,197.9c-0.3,0.4-5.4,5.4-5.7,5.6c-1.5-0.4-6.8-2.9-7.5-2.8
	c-0.8,0.3-5.7,9.4-6.2,10.3l6.1,5.4c-0.1,1.1-1.6,4.6-2.1,8l-8.1,1.1l0,12.4c1.4,0.2,3.1,0.6,4.4,0.8l3.1,0.6
	c0.8,0.3,0.8,2.4,1.3,4.3c0.3,1.3,0.7,2.6,1.1,3.7c-1.3,1.4-5.3,3.9-6.2,5.1l5.9,10.5c2-0.1,5.2-2,7.5-2.5l0.9,0.8
	c1.2,1.3,3.8,4.1,5.1,4.9l-2.8,7.5c0.9,0.8,9.5,5.8,10.5,6.1l5.2-5.7c1.1,0.2,2.7,0.8,3.8,1.1c1.5,0.4,2.6,0.6,4.2,1l1.3,7.5
	c1,0.6,9.5,0,12.2,0.4c0.2-1.7,0.7-7.3,2-7.9l1.5-0.4c2.6-0.6,3.8-1.1,6-1.7c1.7,2,3.3,4.1,4.9,6.1l10.4-5.9c0-2.2-2.3-5.7-2.3-7.8
	c2.3-1.8,3.6-3.7,5.9-5.8l7.2,2.7c0.9-0.7,2.3-3.7,3.1-5.1c0.8-1.5,2.3-3.6,3-5.3c-0.5-0.7-5-4.6-6-5c0.1-0.6,2.2-8,2.2-8.1
	c1.1-0.7,6-1.1,7.8-1.3l0-12.3c-1.1-0.3-7.5-1.2-7.6-1.6l-2.4-7.9c2.1-1.8,4.4-3.2,6.2-5.1c-0.6-1.5-4.7-8.2-6-10.6l-7.7,2.7
	c-2-1.7-3.6-3.9-5.8-5.6c0.5-2.3,2.7-5.8,2.9-8.1c-1.2-0.2-8.3-4.9-10.5-5.8l-5.3,6.4c-1.7-0.2-2.2-0.7-3.7-1.2
	c-1.2-0.4-2.5-0.6-4.1-0.8l-1.1-6.9c-0.1-1,0-1.6-0.9-1.6h-11c-1,0-0.9,0.9-1,1.9l-1.2,6.8c-1.9-0.9-5.9,1.3-7.7,1.7
	c-0.8-1.2-1.6-2.2-2.5-3.4c-0.7-0.9-1.8-2.7-2.6-3.1c-0.8,0.3-2,1.1-2.8,1.5l-5.3,3c-1.1,0.6-1.7,0.9-2.5,1.5L412.6,197.9z"/>
<path id="path42" class="st0" d="M64.2,502.8v-53.1h12.5v22.1l29.4-22.1H124l-35.2,25l39.5,28.1h-19.9l-31.8-23.4v23.4L64.2,502.8z
	 M179.9,458.3h-28.2V471h28.2c2.1,0,3.6-0.3,4.4-0.8c0.8-0.6,1.3-1.6,1.3-3v-5c0-1.4-0.4-2.4-1.3-3
	C183.5,458.6,182,458.3,179.9,458.3z M179.9,479.8h-28.2v13.5h28.2c2.4,0,4-0.3,4.8-1c0.8-0.7,1.2-2,1.2-3.7v-4c0-1.8-0.4-3-1.2-3.7
	C183.8,480.1,182.3,479.8,179.9,479.8z M139.6,502.8v-53.1h45.5c4.2,0,7.2,0.8,9.2,2.5c1.8,1.6,2.8,4.3,2.8,7.8v6.5
	c0,2.5-0.8,4.5-2.4,6.1c-1.6,1.6-3.9,2.6-6.8,2.9c3.1,0.4,5.4,1.5,7.1,3.3c1.7,1.7,2.5,4,2.5,6.9v6.8c0,3.4-1.3,6-3.9,7.8
	c-2.5,1.7-6.4,2.6-11.7,2.6L139.6,502.8z M231.6,481.6h23.3L243.3,460L231.6,481.6z M207.8,502.8l30-53.1h11.9l30.5,53.1h-13.9
	l-6.4-11.6h-33.7l-6.2,11.6H207.8z M291.1,502.8v-53.1h12.4v20.6h38.6v-20.6h12.5v53.1h-12.5V480h-38.6v22.9H291.1z M402,459.2v43.7
	h-12.4v-43.7h-24.4v-9.5h61.3v9.5H402z M436.5,462.3c0-4.8,0.9-8.1,2.7-9.9c1.9-1.8,5.4-2.7,10.5-2.7h39.1c5.1,0,8.6,0.9,10.4,2.7
	c1.9,1.8,2.8,5,2.8,9.9v28c0,4.8-0.9,8.1-2.8,9.9c-1.8,1.8-5.3,2.7-10.4,2.7h-39.1c-5.1,0-8.6-0.9-10.5-2.7
	c-1.8-1.8-2.7-5.1-2.7-9.9V462.3z M448.9,492.8h40.8v-33.7h-40.8V492.8z M558.1,458.9h-27.8V473h27.8c2.2,0,3.6-0.3,4.4-0.9
	c0.8-0.6,1.1-1.7,1.1-3.3v-5.7c0-1.6-0.4-2.7-1.1-3.3C561.7,459.2,560.3,458.9,558.1,458.9L558.1,458.9z M518.1,502.8v-53.1h45.4
	c4.2,0,7.3,0.8,9.3,2.4c1.9,1.6,2.8,4.3,2.8,7.9v11.8c0,3.6-0.9,6.2-2.8,7.8c-2,1.7-5,2.5-9.3,2.5h-33.2v20.7L518.1,502.8z
	 M653.9,502.8v-53.1h-8.4L608,481c-1.5,1.2-2.7,2.2-3.4,2.9c-0.7,0.7-1.6,1.6-2.7,2.9c0.1-1.3,0.2-2.4,0.2-3.4c0.1-1,0.1-2,0.2-2.9
	c0.1-0.8,0.1-1.8,0.1-2.9v-27.9h-11.1v53.1h8.4l39-32.9c1-0.8,1.8-1.6,2.5-2.2c0.7-0.7,1.4-1.4,2-2.1c0,0.6-0.1,1.4-0.2,2.4
	c-0.1,1-0.2,1.8-0.2,2.2c-0.1,1-0.1,2.3-0.1,3.8v28.7H653.9z M672.4,502.8v-10h30.4h17.2v-8.8h-34.4c-5.1,0-8.6-0.9-10.4-2.7
	c-1.8-1.7-2.8-5-2.8-9.9v-21.8h12.4v25.2h35.2v-25.2h12.4v40.6c0,4.8-0.9,8.1-2.7,9.9c-1.9,1.8-5.4,2.7-10.5,2.7h-17.3h-16.3H672.4z
	 M748.2,502.8v-53.1h10l25,32.1l24.5-32.1h9.9v53.1h-11.4V470c0-0.9,0-1.7,0.1-2.4c0.1-0.8,0.2-1.9,0.3-3.3c-0.3,0.7-0.7,1.3-1,1.9
	c-0.3,0.6-0.5,1.1-0.8,1.5c-0.5,1-1,1.7-1.3,2.2l-20,26.6H781l-20-26.7c-0.6-0.8-1.3-1.8-1.9-2.9c-0.7-1-1.1-1.9-1.3-2.6
	c0.1,1.1,0.2,2.1,0.3,3.1v2.6v32.9L748.2,502.8z"/>
</svg>
